<svg width="58" height="58" viewBox="0 0 58 58" fill="none" xmlns="http://www.w3.org/2000/svg">
<path d="M57.2812 61.7019H0.172607C0.276536 60.6905 0.791453 57.1744 3.36131 52.6799C6.41302 47.3347 20.0182 48.0956 20.4764 47.3347C20.6748 47.0039 20.7882 45.6569 20.8543 44.2439C20.9346 42.4101 20.9346 40.463 20.9346 40.463L28.7293 42.7599L36.5239 40.463C36.5239 40.463 36.5239 42.396 36.5994 44.2439C36.6703 45.6617 36.7789 47.0275 36.9821 47.3631C37.4545 48.124 51.0408 47.3631 54.0972 52.7082C56.6623 57.1744 57.182 60.6905 57.2812 61.7019Z" fill="#E1A387"/>
<path d="M57.2812 61.7019H0.172607C0.276536 60.6905 0.791453 57.1744 3.36131 52.6799C5.93118 48.1854 16.0689 48.0011 19.4229 47.6041C20.0323 47.5285 20.415 47.4529 20.4858 47.3347C20.4858 47.3347 28.5875 57.8833 36.9915 47.3347C37.0671 47.467 37.549 47.5521 38.3048 47.6372C41.8762 48.0153 51.584 48.2705 54.1066 52.6799C56.6623 57.1744 57.182 60.6905 57.2812 61.7019Z" fill="#860018"/>
<path d="M38.2955 47.6372C31.6819 56.8388 23.7928 51.7961 19.3995 47.6041C20.0089 47.5285 20.3915 47.4529 20.4624 47.3347C20.4624 47.3347 28.5641 57.8833 36.9681 47.3347C37.0578 47.467 37.5397 47.5521 38.2955 47.6372Z" fill="#6B1524"/>
<path d="M15.3886 24.5363C15.3886 24.5363 11.7747 18.4302 10.2819 23.6619C8.78909 28.8937 12.3982 31.389 14.765 30.8928C17.1317 30.3966 15.3886 24.5363 15.3886 24.5363Z" fill="#E1A387"/>
<path d="M14.9684 25.5335C14.9684 25.5335 12.4789 21.6676 11.6049 23.2272C11.073 24.3297 10.8587 25.5588 10.9861 26.7764C10.9861 26.7764 11.4821 24.5977 13.1024 25.8312C13.1024 25.8312 11.5435 29.319 14.7228 28.3218C14.7039 28.336 16.0124 27.2774 14.9684 25.5335Z" fill="#CE8D75"/>
<path d="M41.3284 24.5363C41.3284 24.5363 44.9423 18.4302 46.4351 23.6619C47.9278 28.8937 44.3187 31.389 41.952 30.8928C39.5853 30.3966 41.3284 24.5363 41.3284 24.5363Z" fill="#E1A387"/>
<path d="M41.3802 25.9398C41.3802 25.9398 43.8697 22.0739 44.7437 23.6335C45.2758 24.7361 45.4916 25.9648 45.3672 27.1828C45.3672 27.1828 44.8665 25.0041 43.2461 26.2376C43.2461 26.2376 44.8051 29.7254 41.6258 28.7282C41.6258 28.7424 40.322 27.6838 41.3802 25.9398Z" fill="#CE8D75"/>
<path d="M41.4227 34.5035C41.1487 38.9933 36.0326 42.3157 32.688 43.7997C30.7718 44.6936 28.6212 44.9551 26.5468 44.5464C13.9053 40.827 14.2643 32.2586 14.8312 29.8531C15.3981 27.4475 14.6233 22.764 16.1067 17.2061C16.2977 16.4869 16.582 15.7958 16.9523 15.1503C19.2151 11.1993 24.0383 9.92803 24.0383 9.92803C32.3951 4.52614 38.2434 9.8335 40.1708 14.1815C40.2989 14.4654 40.4124 14.7556 40.511 15.0511C41.9707 19.5266 41.7061 29.4655 41.4227 34.5035Z" fill="#F2C2AC"/>
<path fill-rule="evenodd" clip-rule="evenodd" d="M37.1628 6.18577C37.1964 6.17745 37.23 6.16938 37.2637 6.16157C37.5513 6.09089 37.8432 6.03878 38.1376 6.0056C38.3841 6.00812 38.6302 6.02549 38.8745 6.05759C39.1343 6.09782 39.3902 6.15946 39.6398 6.2419C43.2773 7.46595 43.5655 13.1656 43.0742 18.1279C43.0364 18.4777 42.9986 18.8274 42.9561 19.1677C42.7158 21.0744 42.3767 22.9674 41.9404 24.8389C41.8966 25.0347 41.8546 25.207 41.8189 25.3536C41.7968 25.4441 41.7772 25.5247 41.7609 25.5951C41.709 25.8125 41.6759 25.9307 41.6759 25.9307L41.5861 25.3352V25.2548C41.3924 23.7661 40.6413 21.8426 39.7249 19.886C38.6545 17.7215 37.4909 15.605 36.2374 13.5426C34.0723 14.2462 30.8089 15.2043 26.6411 16.1286C25.8285 16.3082 24.9877 16.4878 24.1043 16.6627C22.9044 16.9021 21.6446 17.1353 20.3251 17.3622C15.0861 18.2459 12.7005 16.71 11.6565 14.7345C11.5729 14.5809 11.4972 14.4232 11.4297 14.2619C10.4519 11.8988 11.1557 9.12463 11.1557 9.12463C11.4297 9.70593 12.0344 9.76265 12.9036 9.45546C13.0645 9.39954 13.2222 9.33485 13.376 9.26169C14.5438 8.74713 16.0821 7.75293 17.861 6.6032C20.8529 4.66942 24.5256 2.29568 28.2614 1.02418C29.0013 0.763707 29.7826 0.640394 30.5667 0.660275C30.9381 0.673414 31.307 0.725684 31.6674 0.816229C32.8386 1.1359 33.8994 1.77194 34.7333 2.65466C34.8608 2.78699 34.9884 2.91932 35.1112 3.05637C35.8684 3.93269 36.5142 4.89944 37.0339 5.93454C37.0776 6.01796 37.1206 6.10178 37.1628 6.18577Z" fill="#A16929"/>
<path d="M15.379 9.55322C15.2231 10.0258 14.7176 19.3172 15.1995 23.5329L19.6542 11.8454L15.379 9.55322Z" fill="#A16929"/>
<path d="M35.1208 3.03742C33.9729 4.33709 32.8061 5.61312 31.5306 6.81827C28.0017 10.1738 23.9155 13.085 19.1537 14.38C16.7917 15.0132 14.0329 15.4102 11.6567 14.7344C11.573 14.5809 11.4974 14.4231 11.4299 14.2618C11.6331 14.3232 11.8362 14.3705 12.0582 14.4178C16.3098 15.2873 21.0338 13.7419 24.695 11.5821C28.5333 9.21139 31.9327 6.19422 34.7429 2.66406C34.8705 2.76804 34.998 2.90037 35.1208 3.03742Z" fill="#C98643"/>
<path d="M31.6772 0.797264C29.5231 4.34654 26.6934 7.4752 23.415 9.50268C20.7506 11.1474 17.7462 11.7617 14.7464 10.7551C14.0065 10.5254 13.3603 10.0629 12.9041 9.43651C13.0649 9.38059 13.2226 9.3159 13.3765 9.24274C13.6555 9.55092 13.9947 9.79862 14.3732 9.97056C15.9586 10.6799 17.7337 10.846 19.4232 10.4432C22.2954 9.74843 24.7944 7.82492 26.7973 5.7171C28.2429 4.17536 29.5106 2.4759 30.5765 0.650757C30.9476 0.660799 31.3165 0.709905 31.6772 0.797264Z" fill="#C98643"/>
<path d="M37.4736 6.78521C35.3975 9.21543 33.0838 11.432 30.5671 13.4017C29.3193 14.3939 28.008 15.3032 26.6414 16.1239C25.8289 16.3035 24.988 16.4831 24.1046 16.658C26.7155 15.4718 29.1254 13.8852 31.2473 11.9555C33.3448 10.1062 35.2837 8.08424 37.0437 5.91089C37.1948 6.2039 37.3366 6.49692 37.4736 6.78521Z" fill="#C98643"/>
<path d="M20.4055 20.2497C18.9883 21.1193 18.1427 23.2508 18.9883 24.6261C19.0261 24.6969 19.1726 24.6686 19.1631 24.5882C19.0961 23.9519 19.1734 23.3087 19.3894 22.7065C19.6053 22.1042 19.9543 21.5585 20.4103 21.1099C21.0194 20.5544 21.8111 20.2416 22.6352 20.2308C23.58 20.1694 23.9958 21.0154 24.7374 21.3036C24.8886 21.3651 25.0823 21.2658 25.0303 21.1099C24.4445 19.3423 21.8558 19.3707 20.4055 20.2497Z" fill="#390A0A"/>
<path d="M25.4082 24.2196C25.4082 26.5118 23.991 28.3738 22.262 28.3738C20.533 28.3738 19.1205 26.5118 19.1205 24.2196C19.1205 21.9275 20.5378 20.0654 22.262 20.0654C23.9863 20.0654 25.4082 21.9275 25.4082 24.2196Z" fill="white"/>
<path d="M24.7423 24.3425C24.7423 26.0486 23.67 27.4333 22.3472 27.4333C21.0245 27.4333 19.9521 26.0486 19.9521 24.3425C19.9521 22.6364 21.0245 21.2469 22.3472 21.2469C23.67 21.2469 24.7423 22.6459 24.7423 24.3425Z" fill="#3D79CA"/>
<path d="M24.3594 24.3898C24.3594 25.8076 23.4808 26.9986 22.399 26.9986C21.3172 26.9986 20.4385 25.8312 20.4385 24.3898C20.4385 22.9484 21.3172 21.781 22.399 21.781C23.4808 21.781 24.3594 22.9531 24.3594 24.3898Z" fill="#390A0A"/>
<path d="M24.7421 22.1449C24.7421 22.4285 24.1847 22.6553 23.4997 22.6553C22.8147 22.6553 22.262 22.4285 22.262 22.1449C22.262 21.8613 22.8195 21.6298 23.4997 21.6298C24.18 21.6298 24.7421 21.8566 24.7421 22.1449Z" fill="white"/>
<path d="M36.3729 20.2497C37.7901 21.1193 38.6357 23.2508 37.7901 24.6261C37.7523 24.6969 37.6058 24.6686 37.6153 24.5882C37.6823 23.9519 37.605 23.3087 37.389 22.7065C37.1731 22.1042 36.8241 21.5585 36.3681 21.1099C35.7606 20.5547 34.9706 20.2419 34.1478 20.2308C33.203 20.1694 32.7826 21.0154 32.0409 21.3036C31.8898 21.3651 31.6961 21.2658 31.7481 21.1099C32.3338 19.3423 34.9226 19.3707 36.3729 20.2497Z" fill="#390A0A"/>
<path d="M37.431 24.2196C37.431 26.5118 36.0138 28.3738 34.2896 28.3738C32.5653 28.3738 31.1481 26.5118 31.1481 24.2196C31.1481 21.9275 32.5653 20.0654 34.2896 20.0654C36.0138 20.0654 37.431 21.9275 37.431 24.2196Z" fill="white"/>
<path d="M36.7646 24.3425C36.7646 26.0486 35.6923 27.4333 34.3696 27.4333C33.0468 27.4333 31.9745 26.0628 31.9745 24.3425C31.9745 22.6222 33.0468 21.2469 34.3648 21.2469C35.6828 21.2469 36.7646 22.6459 36.7646 24.3425Z" fill="#3D79CA"/>
<path d="M36.3869 24.3898C36.3869 25.8076 35.5082 26.9986 34.4216 26.9986C33.3351 26.9986 32.4612 25.8312 32.4612 24.3898C32.4612 22.9484 33.3398 21.781 34.4216 21.781C35.5034 21.781 36.3869 22.9531 36.3869 24.3898Z" fill="#390A0A"/>
<path d="M36.7649 22.1449C36.7649 22.4285 36.2122 22.6553 35.5272 22.6553C34.8423 22.6553 34.2896 22.4285 34.2896 22.1449C34.2896 21.8613 34.8423 21.6298 35.5272 21.6298C36.2122 21.6298 36.7649 21.8566 36.7649 22.1449Z" fill="white"/>
<path d="M28.2993 22.2158C28.2993 22.2158 27.3545 21.2706 27.1844 24.6355C27.0143 28.0005 27.1844 31.5167 27.1844 31.5167C27.1844 31.5167 24.9547 30.2123 25.6963 32.0744C26.0979 33.0763 27.0427 33.5914 28.0584 33.8561C28.4273 33.9628 28.8191 33.9616 29.1874 33.8528C29.5557 33.7439 29.8852 33.5318 30.1369 33.2417C30.4015 32.9818 31.7809 31.5828 31.3463 31.1481C31.1384 30.9354 29.9291 31.4363 29.622 31.5167C29.6126 31.5167 29.9716 21.4738 28.2993 22.2158Z" fill="#E1A387"/>
<path d="M33.8643 35.8409C33.8643 35.8409 29.4851 43.3506 23.4384 36.1245C23.4384 36.1245 26.9625 34.9335 28.2521 35.9922L28.7245 36.5262C28.7245 36.5262 30.085 34.8485 33.8643 35.8409Z" fill="#CE8D75"/>
<path d="M33.8643 35.8409C33.8643 35.8409 29.4851 43.3507 23.4384 36.1245C23.4714 36.1245 29.3812 38.8373 33.8643 35.8409Z" fill="#E1A387"/>
<path d="M25.9943 18.5369C25.9943 19.3308 23.9697 18.8833 21.4951 18.8833C19.0205 18.8833 16.9958 19.3308 16.9958 18.5369C16.9958 17.7431 19.016 16.0082 21.4951 16.0082C23.9742 16.0082 25.9943 17.7431 25.9943 18.5369Z" fill="#343434"/>
<path d="M38.9922 18.5369C38.9922 19.3308 36.9721 18.8833 34.493 18.8833C32.0139 18.8833 29.9937 19.3308 29.9937 18.5369C29.9937 17.7431 32.0139 16.0082 34.493 16.0082C36.9721 16.0082 38.9922 17.7431 38.9922 18.5369Z" fill="#343434"/>
</svg>
