<svg width="87" height="87" viewBox="0 0 87 87" fill="none" xmlns="http://www.w3.org/2000/svg">
<path d="M70.6875 10.875H16.3125C14.8707 10.876 13.4882 11.4492 12.4687 12.4687C11.4492 13.4882 10.876 14.8707 10.875 16.3125V70.6875C10.876 72.1293 11.4492 73.5118 12.4687 74.5313C13.4882 75.5508 14.8707 76.124 16.3125 76.125H53.2493C53.9635 76.1263 54.6709 75.9862 55.3308 75.7128C55.9906 75.4394 56.5898 75.0381 57.0938 74.532L74.532 57.0938C75.0381 56.5898 75.4394 55.9906 75.7128 55.3308C75.9862 54.6709 76.1263 53.9635 76.125 53.2493V16.3125C76.124 14.8707 75.5508 13.4882 74.5313 12.4687C73.5118 11.4492 72.1293 10.876 70.6875 10.875ZM32.625 29.9062H54.375C55.0961 29.9062 55.7876 30.1927 56.2974 30.7026C56.8073 31.2124 57.0938 31.9039 57.0938 32.625C57.0938 33.3461 56.8073 34.0376 56.2974 34.5474C55.7876 35.0573 55.0961 35.3438 54.375 35.3438H32.625C31.9039 35.3438 31.2124 35.0573 30.7026 34.5474C30.1927 34.0376 29.9062 33.3461 29.9062 32.625C29.9062 31.9039 30.1927 31.2124 30.7026 30.7026C31.2124 30.1927 31.9039 29.9062 32.625 29.9062ZM43.5 57.0938H32.625C31.9039 57.0938 31.2124 56.8073 30.7026 56.2974C30.1927 55.7876 29.9062 55.0961 29.9062 54.375C29.9062 53.6539 30.1927 52.9624 30.7026 52.4526C31.2124 51.9427 31.9039 51.6562 32.625 51.6562H43.5C44.2211 51.6562 44.9126 51.9427 45.4224 52.4526C45.9323 52.9624 46.2188 53.6539 46.2188 54.375C46.2188 55.0961 45.9323 55.7876 45.4224 56.2974C44.9126 56.8073 44.2211 57.0938 43.5 57.0938ZM32.625 46.2188C31.9039 46.2188 31.2124 45.9323 30.7026 45.4224C30.1927 44.9126 29.9062 44.2211 29.9062 43.5C29.9062 42.7789 30.1927 42.0874 30.7026 41.5776C31.2124 41.0677 31.9039 40.7812 32.625 40.7812H54.375C55.0961 40.7812 55.7876 41.0677 56.2974 41.5776C56.8073 42.0874 57.0938 42.7789 57.0938 43.5C57.0938 44.2211 56.8073 44.9126 56.2974 45.4224C55.7876 45.9323 55.0961 46.2188 54.375 46.2188H32.625ZM54.375 69.5618V54.3697H69.5671L54.375 69.5618Z" fill="white"/>
</svg>
