<svg width="24" height="24" viewBox="0 0 24 24" fill="none" xmlns="http://www.w3.org/2000/svg">
<path d="M19.7109 3.36349L2.24269 8.29043C2.09574 8.33188 1.96493 8.41719 1.86776 8.53497C1.77059 8.65275 1.71169 8.79738 1.69892 8.94954C1.68615 9.10169 1.72012 9.25412 1.7963 9.38645C1.87248 9.51878 1.98723 9.6247 2.12523 9.69007L10.1512 13.4919C10.3078 13.566 10.4338 13.6921 10.508 13.8486L14.3098 21.8746C14.3751 22.0126 14.4811 22.1274 14.6134 22.2035C14.7457 22.2797 14.8981 22.3137 15.0503 22.3009C15.2025 22.2882 15.3471 22.2292 15.4649 22.1321C15.5826 22.0349 15.668 21.9041 15.7094 21.7571L20.6363 4.28892C20.6725 4.16061 20.6739 4.02497 20.6402 3.89597C20.6066 3.76697 20.5391 3.64927 20.4448 3.555C20.3506 3.46073 20.2329 3.39329 20.1039 3.35963C19.9749 3.32597 19.8392 3.3273 19.7109 3.36349Z" stroke="#222B45" stroke-width="2" stroke-linecap="round" stroke-linejoin="round"/>
<path d="M10.3934 13.6065L14.6361 9.36389" stroke="#222B45" stroke-width="2" stroke-linecap="round" stroke-linejoin="round"/>
</svg>
