<svg width="26" height="26" viewBox="0 0 26 26" fill="none" xmlns="http://www.w3.org/2000/svg">
<path d="M13 22.75C18.3848 22.75 22.75 18.3848 22.75 13C22.75 7.61522 18.3848 3.25 13 3.25C7.61522 3.25 3.25 7.61522 3.25 13C3.25 18.3848 7.61522 22.75 13 22.75Z" stroke="#3BC593" stroke-width="2" stroke-linecap="round" stroke-linejoin="round"/>
<path d="M17.2228 15.4371C16.7945 16.178 16.1788 16.7931 15.4376 17.2207C14.6964 17.6483 13.8557 17.8735 13 17.8735C12.1443 17.8735 11.3036 17.6484 10.5624 17.2207C9.82121 16.7931 9.20554 16.178 8.77722 15.4372" stroke="#3BC593" stroke-width="2" stroke-linecap="round" stroke-linejoin="round"/>
<path d="M9.34375 12.1875C10.0168 12.1875 10.5625 11.6418 10.5625 10.9688C10.5625 10.2957 10.0168 9.75 9.34375 9.75C8.67065 9.75 8.125 10.2957 8.125 10.9688C8.125 11.6418 8.67065 12.1875 9.34375 12.1875Z" fill="#3BC593"/>
<path d="M16.6562 12.1875C17.3293 12.1875 17.875 11.6418 17.875 10.9688C17.875 10.2957 17.3293 9.75 16.6562 9.75C15.9832 9.75 15.4375 10.2957 15.4375 10.9688C15.4375 11.6418 15.9832 12.1875 16.6562 12.1875Z" fill="#3BC593"/>
</svg>
